<?xml version="1.0" standalone="no"?><!DOCTYPE svg PUBLIC "-//W3C//DTD SVG 1.1//EN" "http://www.w3.org/Graphics/SVG/1.1/DTD/svg11.dtd"><svg t="1709564624065" class="icon" viewBox="0 0 1024 1024" version="1.1" xmlns="http://www.w3.org/2000/svg" p-id="13203" xmlns:xlink="http://www.w3.org/1999/xlink" width="200" height="200"><path d="M757.395 572.268a212.143 212.143 0 0 1 36.16 3.616v-409.42A80.357 80.357 0 0 0 713.2 90.125h-135l-65.893 46.607H271.235a80.357 80.357 0 0 0-80.358 75.938v560.49a80.357 80.357 0 0 0 80.358 75.938h300.133a200.893 200.893 0 0 1 186.027-276.83zM713.2 476.24H271.235a20.09 20.09 0 0 1-20.09-20.09 20.09 20.09 0 0 1 20.09-20.089h441.964a20.09 20.09 0 0 1 20.09 20.09 20.09 20.09 0 0 1-20.09 20.09zM251.145 315.527a80.357 80.357 0 0 1 80.357-80.357h321.429a80.357 80.357 0 0 1 80.357 80.357v26.92H251.145zM463.69 560.214H260.386c-5.223 0-9.24-9.24-9.24-20.089s4.017-20.09 9.24-20.09H463.69c4.821 0 9.24 8.84 9.24 20.09s-4.419 20.09-9.24 20.09z" p-id="13204" fill="#515151"></path><path d="M757.395 612.446A160.714 160.714 0 1 0 918.11 773.161a160.714 160.714 0 0 0-160.715-160.715z m84.777 183.215h-88.795a20.09 20.09 0 0 1-20.089-20.09v-89.196a20.09 20.09 0 0 1 20.09-20.09 20.09 20.09 0 0 1 20.089 20.09v68.705h69.107a20.09 20.09 0 0 1 0 40.179z" p-id="13205" fill="#515151"></path></svg>