<?xml version="1.0" standalone="no"?><!DOCTYPE svg PUBLIC "-//W3C//DTD SVG 1.1//EN" "http://www.w3.org/Graphics/SVG/1.1/DTD/svg11.dtd"><svg t="1709563001391" class="icon" viewBox="0 0 1024 1024" version="1.1" xmlns="http://www.w3.org/2000/svg" p-id="8931" xmlns:xlink="http://www.w3.org/1999/xlink" width="200" height="200"><path d="M529.066667 438.613333c-54.613333 0-98.986667 44.373333-98.986667 98.986667 0 54.613333 44.373333 98.986667 98.986667 98.986667 54.613333 0 98.986667-44.373333 98.986666-98.986667 0-56.32-44.373333-98.986667-98.986666-98.986667z m0 162.133334c-35.84 0-64.853333-29.013333-64.853334-64.853334s29.013333-64.853333 64.853334-64.853333 64.853333 29.013333 64.853333 64.853333-29.013333 64.853333-64.853333 64.853334z" fill="#231815" p-id="8932"></path><path d="M733.866667 477.866667c-22.186667 0-40.96-11.946667-51.2-30.72-10.24-18.773333-10.24-40.96 0-59.733334 3.413333-6.826667 1.706667-15.36-3.413334-20.48-22.186667-20.48-47.786667-34.133333-76.8-44.373333-6.826667-1.706667-15.36 0-20.48 6.826667-11.946667 18.773333-30.72 29.013333-51.2 29.013333s-40.96-10.24-51.2-29.013333c-3.413333-6.826667-11.946667-10.24-20.48-6.826667-29.013333 10.24-54.613333 23.893333-76.8 44.373333-5.12 5.12-6.826667 13.653333-3.413333 20.48 10.24 18.773333 10.24 40.96-1.706667 59.733334-10.24 18.773333-29.013333 29.013333-51.2 30.72-8.533333 0-15.36 5.12-15.36 13.653333-3.413333 15.36-5.12 29.013333-5.12 44.373333 0 15.36 1.706667 29.013333 5.12 44.373334 1.706667 8.533333 8.533333 13.653333 15.36 13.653333 20.48 0 40.96 11.946667 51.2 30.72 10.24 18.773333 10.24 40.96 0 59.733333-3.413333 6.826667-1.706667 15.36 3.413334 20.48 22.186667 20.48 47.786667 35.84 76.8 44.373334 6.826667 1.706667 15.36 0 20.48-6.826667 11.946667-18.773333 30.72-29.013333 51.2-29.013333 22.186667 0 40.96 10.24 51.2 29.013333 3.413333 5.12 8.533333 8.533333 15.36 8.533333 1.706667 0 3.413333 0 5.12-1.706666 29.013333-10.24 54.613333-23.893333 76.8-44.373334 6.826667-5.12 6.826667-13.653333 3.413333-20.48-10.24-18.773333-10.24-40.96 0-59.733333s29.013333-29.013333 51.2-30.72c8.533333 0 15.36-5.12 17.066667-13.653333 3.413333-15.36 5.12-29.013333 5.12-44.373334 0-15.36-1.706667-30.72-5.12-44.373333 0-6.826667-6.826667-13.653333-15.36-13.653333z m-15.36 83.626666c-27.306667 5.12-51.2 20.48-66.56 46.08-13.653333 23.893333-17.066667 52.906667-6.826667 80.213334-13.653333 10.24-29.013333 18.773333-44.373333 25.6-17.066667-22.186667-44.373333-34.133333-73.386667-34.133334-29.013333 0-54.613333 11.946667-71.68 34.133334-15.36-6.826667-30.72-15.36-44.373333-25.6 10.24-25.6 6.826667-54.613333-6.826667-80.213334-13.653333-23.893333-37.546667-40.96-64.853333-46.08-1.706667-8.533333-1.706667-17.066667-1.706667-25.6s0-17.066667 1.706667-25.6c27.306667-5.12 51.2-22.186667 64.853333-46.08 13.653333-23.893333 17.066667-52.906667 6.826667-78.506666 13.653333-10.24 29.013333-18.773333 44.373333-25.6 17.066667 20.48 44.373333 34.133333 71.68 34.133333 29.013333 0 54.613333-11.946667 71.68-34.133333 15.36 6.826667 30.72 15.36 44.373333 25.6-10.24 25.6-6.826667 54.613333 6.826667 80.213333 13.653333 23.893333 37.546667 40.96 64.853333 46.08 1.706667 8.533333 1.706667 17.066667 1.706667 25.6 3.413333 6.826667 3.413333 15.36 1.706667 23.893333z" fill="#231815" p-id="8933"></path><path d="M907.946667 153.6H597.333333c-29.013333 0-52.906667 17.066667-68.266666 39.253333C513.706667 170.666667 489.813333 153.6 460.8 153.6H151.893333c-29.013333 0-51.2 22.186667-51.2 51.2v622.933333c0 29.013333 22.186667 51.2 51.2 51.2H460.8c8.533333 23.893333 32.426667 39.253333 58.026667 39.253334h22.186666c25.6 0 49.493333-17.066667 58.026667-39.253334h308.906667c29.013333 0 51.2-22.186667 51.2-51.2V204.8c0-29.013333-22.186667-51.2-51.2-51.2z m17.066666 674.133333c0 10.24-6.826667 17.066667-17.066666 17.066667H585.386667c-8.533333 0-15.36 6.826667-17.066667 15.36-1.706667 13.653333-13.653333 25.6-27.306667 25.6h-22.186666c-13.653333 0-25.6-10.24-27.306667-25.6-1.706667-8.533333-8.533333-15.36-17.066667-15.36H151.893333c-10.24 0-17.066667-6.826667-17.066666-17.066667V204.8c0-10.24 6.826667-17.066667 17.066666-17.066667H460.8c29.013333 0 51.2 32.426667 51.2 59.733334 0 10.24 6.826667 17.066667 17.066667 17.066666s17.066667-6.826667 17.066666-17.066666c0-27.306667 22.186667-59.733333 51.2-59.733334h310.613334c10.24 0 17.066667 6.826667 17.066666 17.066667v622.933333z" fill="#231815" p-id="8934"></path></svg>