<?xml version="1.0" standalone="no"?><!DOCTYPE svg PUBLIC "-//W3C//DTD SVG 1.1//EN" "http://www.w3.org/Graphics/SVG/1.1/DTD/svg11.dtd"><svg t="1709564133996" class="icon" viewBox="0 0 1024 1024" version="1.1" xmlns="http://www.w3.org/2000/svg" p-id="11931" xmlns:xlink="http://www.w3.org/1999/xlink" width="200" height="200"><path d="M903 265.6c-28.9-3.1-39.1 13.5-39.1 13.5L574.4 496.4s-47.4 29.1-89.3-0.1c-30-20.9-0.1-48.4-0.1-48.4l244.9-186.7s26.6-23.1 1.3-49.6c-21.4-22.5-59.6 3-59.6 3S488 346.2 421.7 396.8c-29.7 22.6-22.2 46.9-22.2 78v387c0 35.9 93.3 77.8 93.3 77.8s44.7 21.5 89.4 21.5 75.8-32.9 75.8-32.9l268.2-186.7V309.6c0-28.3 7.7-40.7-23.2-44z m-49.6 259.3l-170 131.3c-9.5 7.3-25.5 4-35.8-7.4s-11-26.6-1.5-33.9l170-131.3c9.5-7.3 25.5-4 35.8 7.4 10.3 11.4 11 26.6 1.5 33.9zM624.3 170.2c0-28.4 7.7-40.7-23.1-44.1-28.8-3.1-39.1 13.5-39.1 13.5L272.5 356.9s-47.4 29.1-89.3-0.1c-30-20.9-0.1-48.4-0.1-48.4L428 121.7s26.6-23.1 1.3-49.6c-21.4-22.5-59.6 3-59.6 3S186.1 206.8 119.9 257.4c-29.7 22.6-22.2 46.9-22.2 78v387c0 35.9 93.3 77.8 93.3 77.8s44.7 21.5 89.4 21.5 38.1-32.9 38.1-32.9l4.1-12.4V406c-0.2 0 301.7-225.9 301.7-235.8z" fill="#323333" p-id="11932"></path></svg>